<?xml version="1.0" encoding="utf-8"?>
<svg version="1.1" id="Layer_1" xmlns="http://www.w3.org/2000/svg" xmlns:xlink="http://www.w3.org/1999/xlink" x="0px" y="0px"
	 viewBox="0 0 612 612" style="enable-background:new 0 0 612 612;" xml:space="preserve">
<style type="text/css">
	.st0{fill:#FFFFFF;stroke:#FFFFFF;stroke-width:2;stroke-miterlimit:10;}
</style>
<path class="st0" d="M306,0.3C137,0.3,0,137.2,0,306c0,168.8,137,305.7,306,305.7c169,0,306-136.9,306-305.7C612,137.2,475,0.3,306,0.3z
                 M266.8,23.8c-27.7,28.8-51.1,61.6-69.4,97.5c-24.4-10.1-47-23.4-67.5-39.5C168.8,51.4,215.6,30.8,266.8,23.8z M114.1,95.3
                c22.5,18.1,47.5,33.1,74.6,44.4c-21.5,47.9-34,100.6-35.4,156.1H20.9C23.7,216.3,59.1,145.2,114.1,95.3z M20.9,316.2h132.4
                c1.4,56.3,14.3,109.6,36.2,158c-26.3,11.6-50.6,26.8-72.4,45.1C60.5,469.2,23.8,397.1,20.9,316.2z M133.2,532.6
                c19.7-16.2,41.6-29.6,65.2-39.9c18.1,35.1,41.2,67.3,68.3,95.5C217,581.3,171.4,561.6,133.2,532.6z M295.8,588
                c-31.5-29.6-58.1-64.4-78.3-102.9c24.7-8.7,51-14,78.3-15.3V588z M295.8,449.3c-30.5,1.4-59.9,7.3-87.4,17.3
                c-21-46-33.3-96.8-34.7-150.4h122.1V449.3z M295.8,295.8H173.7c1.4-53,13.4-103.3,34.1-148.9c27.8,9.4,57.3,15,88.1,16
                L295.8,295.8L295.8,295.8z M295.8,142.5c-27.6-1-54.1-5.9-79.1-14.1c20.3-39.2,47.2-74.5,79.1-104.5V142.5z M591.1,295.8H458.7
                c-1.4-55.5-14.1-108.1-35.8-155.9c27.2-11.3,52.4-26.4,75-44.7C552.9,145.2,588.3,216.3,591.1,295.8z M481.9,81.8
                c-20.6,16.2-43.4,29.6-67.9,39.8c-18.7-36.2-42.7-69.2-71.1-98.1C395,30.2,442.6,51,481.9,81.8z M316.2,25.9
                c31.6,29.5,58.3,64.2,78.5,102.7c-24.8,8.2-51.2,13-78.5,14V25.9L316.2,25.9z M316.2,162.9c30.6-1,60-6.5,87.6-15.8
                c20.9,45.5,33.1,95.8,34.5,148.8H316.2V162.9z M316.2,316.2h122.1c-1.4,52.7-13.5,102.7-34.2,148.1
                c-27.8-9.3-57.3-14.6-87.9-15.3V316.2z M316.2,586.1V469.5c27.5,0.6,53.9,5.3,78.9,13.4C374.8,521.6,348,556.4,316.2,586.1z
                 M342.9,588.5c28.6-29,52.7-62.3,71.4-98.8c24.7,10.1,47.5,23.6,68.2,40C443,560.8,395.2,581.8,342.9,588.5z M498.5,516.3
                c-22.7-18.4-47.9-33.7-75.2-45c21.5-47.6,34.1-99.9,35.5-155.1h132.4C588.3,395.4,553.1,466.3,498.5,516.3z"/>


</svg>
